# xmcd CD database file
#
# Track frame offsets:
#	183
#	14733
#	31608
#	44358
#	64158
#	85983
#	101958
#	130983
#	146883
#	166983
#	189033
#	203058
#	218358
#	237708
#	249933
#
# Disc length: 3609 seconds
#
# Revision: 2
# Processed by: cddbd v1.5.2PL0 Copyright (c) Steve Scherf et al.
# Submitted via: CDex 1.70beta2
#
DISCID=d10e170f
DTITLE=Various Artist - Compact Jazz - Best of Blues
DYEAR=1989
DGENRE=Blues
TTITLE0=furry lewis - saint louis blues
TTITLE1=mickey baker - sun is going down
TTITLE2=clifton chenier - caldonia
TTITLE3=roosevelt sykes - st. james infirmary
TTITLE4=clarence "gatemouth" brown - funky mama
TTITLE5=professor longhair - how long has that train been gone
TTITLE6=memphis slim and buddy guy - when buddy comes to town
TTITLE7=clifton chenier - le blues de la vache à lait
TTITLE8=memphis slim and roosevelt sykes - mr. sykes blues
TTITLE9=memphis slim - jelly, jelly
TTITLE10=clarence "gatemouth" brown - going back to tenessee
TTITLE11=mickey baker - sweet home chicago
TTITLE12=professor longhair - they call me doctor professor longhair
TTITLE13=memphis slim and canned heat - when I was young
TTITLE14=furry lewis - john henry
EXTD=YEAR: 1989
EXTT0=
EXTT1=
EXTT2=
EXTT3=
EXTT4=
EXTT5=
EXTT6=
EXTT7=
EXTT8=
EXTT9=
EXTT10=
EXTT11=
EXTT12=
EXTT13=
EXTT14=
PLAYORDER=
